<svg width="522" height="150" viewBox="0 0 522 326" fill="none" xmlns="http://www.w3.org/2000/svg">
<path fill-rule="evenodd" clip-rule="evenodd" d="M255.123 12.1105L251.458 13.8207C253.656 19.5707 254.485 18.8318 256.9 23.565L246.648 20.3579C247.859 27.4182 244.128 15.395 247.179 22.3665L249.154 30.4247C254.462 29.5981 249.95 28.1965 255.203 30.8437C259.993 47.7346 244.476 31.3933 243.042 30.9413C242.411 35.0702 246.996 44.6113 249.511 48.0761C252.425 52.0881 251.825 47.6723 252.839 54.8278C246.333 51.3758 242.37 37.9166 234.393 38.1033C235.536 43.8127 230.6 48.2233 238.76 50.6928L237.626 53.3944C237.181 55.1275 236.963 53.6078 237.217 57.037L238.855 62.1687C240.103 64.92 243.956 63.1184 246.534 65.0939C246.789 65.2895 247.369 66.0068 247.609 66.22C248.392 66.9158 247.871 66.7977 249.402 67.7424C250.825 68.621 251.662 68.5588 252.982 69.0831C250.9 71.1423 248.302 68.2426 244.89 68.2032C244.44 75.8678 247.613 70.0251 251.263 77.9995C246.991 77.4777 241.147 75.1023 238.021 73.6017C230.918 70.1901 233.788 66.8549 227.633 65.7338L231.289 73.9051C233.1 78.3029 233.274 78.7841 234.458 83.3383C234.75 83.5173 235.237 83.2925 235.422 83.6899L241.789 86.1073C245.91 89.6317 244.647 89.1214 248.846 90.688C252.49 92.0477 251.761 90.7629 252.937 93.8063C249.357 99.6718 234.494 93.0902 230.057 90.3693C233.189 86.5173 232.122 83.1009 230.73 79.4329C227.238 81.3209 224.595 85.7987 221.055 86.1289C219.761 83.3027 224.449 78.7206 224.5 73.4823C221.084 75.831 218.87 80.1007 213.842 79.603C212.55 72.9935 214.024 72.2368 218.95 73.4784C219.373 68.1448 219.991 68.5207 221.38 64.8502L212.666 67.3919L216.655 61.0083C214.96 55.516 215.723 61.3727 214.239 56.6434C214.159 56.3869 214.096 56.1076 214.038 55.836C213.975 55.5439 213.968 55.257 213.924 54.9472C213.387 51.2196 214.852 52.2937 212.696 47.7815C208.647 50.5468 210.102 52.9603 210.366 58.3333C210.225 58.3967 209.945 58.1568 209.9 58.3092L206.707 58.243C206.616 58.25 206.287 58.236 206.111 58.3333C207.558 63.0778 208.209 68.0179 209.488 72.219C205.859 70.0315 206.809 67.1216 202.78 64.5341L202.111 66.1871C200.986 69.422 202.611 67.6992 200.44 71.2326L204.967 74.4573C203.716 80.6987 206.345 81.9417 205.114 84.7742C202.439 81.7792 201.544 79.862 198.516 79.0267L197.358 78.7562C196.808 76.5992 197.081 76.5408 198.205 74.5234C194.839 73.4036 194.444 73.5242 192.957 70.4618C191.156 66.7508 190.828 64.8959 186.527 63.8129L174.966 60.4828C177.892 58.563 178.065 59.2384 178.437 55.1084C172.659 50.5022 174.592 55.8448 171.608 46.4484C168.177 47.3536 171.534 46.31 169.371 48.3592C167.763 49.8802 169.826 49.3127 167.307 50.3106C164.861 46.3037 163.858 46.7493 151.635 44.6938C150.914 49.5424 151.613 47.0617 152.932 50.4388C144.013 54.6603 148.669 53.6687 147.527 58.8906C144.575 58.1593 145.808 57.2985 142.483 58.1098C140.453 66.738 142.395 62.7705 144.02 69.5592C134.637 63.6364 137.931 67.4338 130.757 71.3201C128.936 72.3054 128.497 71.9677 126.601 73.0659C127.482 75.7828 128.657 76.5535 128.935 78.1735C130.216 85.654 127.025 74.117 127.689 84.1318C130.505 86.1568 134.691 84.5711 138.467 86.1911C141.401 87.448 138.802 87.3806 143.04 88.6656C146.98 89.8603 144.994 86.8538 147.623 90.5814L141.781 91.3597C135.537 90.5561 136.293 88.5602 128.761 89.4604C130.439 95.8008 129.054 93.438 133.716 95.5621C127.329 97.9045 134.479 96.2717 129.091 100.623C124.669 99.9271 126.935 95.8134 121.49 99.5944C123.619 105.332 124.443 99.5984 124.146 106.84C121.926 107.717 116.745 105.611 118.011 111.797C119.269 117.95 118.243 110.546 121 116.07L121.675 119.408C122.144 121.461 123.039 121.137 124.728 121.06C131.235 120.763 128.123 121.987 132.838 117.68C134.845 118.14 136.89 119.017 137.678 119.862L141.77 122.829C137.371 131.284 133.978 125.587 127.265 127.919C122.777 129.48 121.788 132.532 117.967 132.847L108.57 134.929C108.691 137.911 109.29 137.661 110.113 140.177C108.276 141.314 103.834 144.658 101.213 144.724C100.193 142.769 99.9178 140.529 100.28 137.529C105.754 135.566 101.86 137.448 106.626 136.275C107.011 132.525 108.659 130.867 109.191 127.309C104.213 127.621 105.216 129.042 99.0011 129.966L103.917 121.8C102.865 118.239 102.872 121.08 100.135 117.454C100.955 112.994 102.001 110.15 98.5122 107.187C94.4812 111.077 96.5635 115.32 96.0962 120.831C92.4701 118.696 96.3032 120.135 91.4316 117.916L95.186 135.809C88.4519 131.606 95.193 129.901 86.687 126.801C85.3502 130.308 86.5017 128.54 86.0727 131.402C85.82 133.085 85.2461 133.815 85.0861 134.916L89.8497 136.941C89.1642 145.908 90.9352 144.546 90.8552 150.47C87.8005 147.675 87.3981 144.08 82.9291 143.795C82.3108 145.894 81.9871 141.638 82.6891 145.516C83.2681 148.716 85.6625 148.212 86.5258 150.593C81.5846 150.75 84.4971 150.421 79.9823 148.387C81.276 157.644 83.395 153.808 89.7304 157.289C93.5202 159.373 93.6839 161.502 93.9048 165.793C85.0455 165.466 86.1552 153.566 77.7668 155.852C77.4546 159.898 79.2078 155.61 79.5976 160.458C80.2044 167.996 73.2216 165.138 91.3656 175.501L90.3499 179.921C89.7216 179.64 89.4473 179.099 89.3723 179.273C89.2974 179.444 88.9458 178.842 88.8416 178.73C86.5627 176.281 86.5729 175.47 83.3646 174.373C83.258 180.589 84.186 179.436 83.329 185.175C87.0972 188.119 87.2509 185.875 88.4875 189.475C84.3941 191.246 80.3112 188.691 77.9255 186.46L70.5631 177.516C67.7877 184.445 69.4699 192.361 74.942 196.821C75.1223 196.968 75.3774 197.166 75.5551 197.315C75.7316 197.462 75.9716 197.683 76.1443 197.832C77.2653 198.788 76.802 198.533 77.7922 199.315C82.3095 202.879 86.1234 199.185 90.6788 196.783L254.078 110.791C263.856 105.546 263.7 103.611 273.526 109.119C288.927 117.752 331.461 140.599 346.214 147.014L346.467 123.425L371.754 123.383L371.688 160.796C386.531 168.651 403.205 177.866 418.843 185.35C419.045 185.156 419.337 184.563 419.435 184.754C419.532 184.943 419.898 184.286 420.035 184.164C421.895 182.506 419.748 183.997 421.884 182.561C425.403 180.192 427.113 183.417 432.076 181.38C432.244 181.312 432.567 181.084 432.843 181.031C431.727 183.881 427.257 185.759 424.669 187.964C424.53 188.084 424.249 188.335 424.063 188.545C428.34 186.921 433.62 183.884 438.877 184.117C438.719 185.348 438.538 187.303 438.9 188.391L439.795 190.151C440.299 191.169 440.651 191.256 441.07 192.896C444.701 192.445 447.85 192.403 450.667 194.321C452.623 195.652 450.823 195.417 453.693 196.475C451.105 177.111 451.656 184.449 455.912 179.801L452.629 173.653C451.858 172.083 450.79 169.764 450.127 168.261C434.424 167.15 445.512 168.179 438 171.676C436.397 169.852 439.112 171.577 435.185 169.367C436.51 166.868 438.782 164.607 442.121 163.396C448.307 161.152 447.129 164.403 450.65 158.302C449.722 155.473 451.271 158.267 449.693 157.094L447.757 156.152C447.273 151.534 445.936 152.992 447.771 149.702C445.597 147.358 444.819 148.596 443.012 144.837C438.439 135.32 433.583 139.451 424.702 134.882C427.975 132.928 428.442 134.022 428.371 129.279C426.247 127.335 428.714 129.398 426.219 128.164C424.767 127.447 424.657 127.839 423.594 126.744L420.994 120.142C420.803 120.401 420.592 120.521 420.506 120.975L417.769 124.514L414.931 120.149C409.835 121.608 406.712 120.463 401.853 118.741C401.114 122.526 401.749 122.256 403.109 125.313C395.782 126.641 388.268 138.304 372.199 134.096C374.568 126.266 382.042 131.963 383.724 123.302L390.602 123.595C392.507 116.779 396.188 110.705 397.799 104.414C392.102 106.281 394.12 109.043 387.841 112.221C383.621 114.357 378.86 116.95 374.208 116.136C376.839 112.68 380.996 112.313 380.845 107.048C375.096 106.792 378.1 108.037 372.136 109.504L377.084 105.669C381.062 102.325 384.639 102.95 386.298 101.067C388.74 97.4577 389.232 94.1084 386.893 90.5814C391.587 86.3054 392.929 85.621 390.843 78.8425C390.117 76.4798 390.647 77.672 389.82 76.3909C381.161 81.604 381.467 87.5217 373.696 93.5383C373.685 93.5205 370.378 93.551 374.667 88.4281C377.957 84.4974 383.397 75.5847 382.609 69.8651C381.186 70.2079 375.242 76.2361 371.177 77.6084L369.418 70.2612C375.479 67.7956 370.966 69.5604 376.475 68.8329C376.626 66.5096 376.564 66.2328 377.226 64.0871C378.21 60.9042 377.118 64.5734 378.17 61.779C378.502 60.8965 378.756 61.778 378.924 59.5673C374.057 60.1335 374.296 61.7028 369.065 62.4735C369.698 59.2246 374.922 56.2181 373.053 52.7342C371.921 50.6216 372.765 53.7258 370.017 49.7342C371.263 43.4775 370.473 44.9325 369.91 39.2625C367.214 40.711 366.78 39.8211 366.012 44.3611C365.575 46.9398 366.172 49.1109 366.188 51.8837C364.49 52.8866 365.009 51.8582 361.365 50.2242C362.176 55.7776 364.369 58.7459 364.368 64.4579C364.368 64.8261 364.347 65.8392 364.298 66.154C363.837 69.1174 365.533 65.7807 363.47 68.3366C360.809 62.6588 362.595 61.4451 356.497 59.1737L354.695 67.5544L360.101 69.7686C358.142 80.1896 360.759 75.7803 360.747 82.7568C356.803 79.8684 356.916 75.7472 354.155 72.6823C349.019 73.594 350.518 75.9872 347.672 74.6999C342.381 72.3054 352.068 74.2212 343.899 69.8716C346.725 69.0106 348.539 67.4631 348.245 64.2091C346.837 63.9589 343.745 63.644 341.698 63.9842C337.017 64.7613 341.769 65.2945 336.487 65.636C336.463 55.7635 350.29 63.6098 349.282 56.6015C349.257 56.4288 349.131 56.1063 349.096 55.926C349.059 55.742 348.897 55.4348 348.858 55.2481C348.068 51.4913 349.676 51.3605 350.89 47.6572C341.968 44.1289 346.72 47.5098 341.668 41.2074L333.458 44.0058C334.692 39.774 336.477 39.3919 335.82 35.8217C334.447 28.3488 330.219 35.0676 329.568 31.82C328.663 27.3052 329.368 27.1833 324.45 25.0263C326.326 21.3812 326.976 24.1084 325.323 19.5123L312.179 22.699C307.385 24.653 314.995 24.0144 308.125 24.4511C306.697 20.6664 310.597 22.8058 305.974 20.7286C303.074 26.918 306.531 25.0466 300.753 28.6218C300.689 28.6611 297.712 27.775 298.972 31.9177C300.167 35.8446 298.832 32.1437 300.226 33.7815C300.383 33.9656 300.64 34.1814 300.806 34.3554L288.081 39.5709C285.784 41.13 285.049 45.5445 283.237 47.511L280.391 49.3393C280.185 49.4499 279.777 49.5653 279.499 49.7342C280.295 52.493 282.052 56.0315 276.951 56.6459C275.257 54.5765 275.591 56.453 276.184 53.3184C276.813 49.9995 277.5 52.7457 278.176 48.7122C266.856 49.2047 273.391 56.6434 261.635 59.759C261.665 55.7039 261.745 53.6953 264.969 51.5345L266.299 50.7727C270.621 48.4582 274.334 51.9231 275.846 42.1306C268.865 43.2998 276.056 43.6781 269.175 44.233C270.8 40.1549 265.697 47.7485 270.211 43.0091C272.52 40.5828 273.701 41.8119 272.94 37.5789C269.297 37.1511 268.946 39.51 266.675 41.8448L264.435 43.8064C265.93 36.2445 267.383 40.8532 265.715 31.4593L270.818 28.425L269.217 22.9886C268.62 20.707 269.331 21.6846 268.352 20.1624C263.496 23.9903 264.569 25.5887 260.758 29.0242C261.735 21.4765 262.607 18.4928 264.397 11.6065C262.018 12.1054 260.92 13.5883 259.57 12.9764C258.477 7.60709 260.905 6.58259 257.795 0.355194C255.554 1.59679 255.681 -0.0931087 254.964 4.97399C254.531 8.02749 255.401 8.49209 255.123 12.1105ZM497.365 253.475C495.723 253.475 494.103 253.598 492.543 253.886C490.984 254.173 489.61 254.665 488.44 255.363C487.25 256.06 486.306 257.004 485.609 258.215C484.911 259.425 484.562 260.923 484.562 262.728C484.562 266.483 485.732 269.191 488.071 270.832C490.41 272.473 493.754 273.294 498.083 273.294H501.386C501.817 273.294 502.042 273.109 502.042 272.699V254.07C502.042 253.66 501.817 253.475 501.386 253.475H497.365ZM521.226 248.428C521.615 248.428 521.82 248.613 521.82 249.023V252.142C521.82 252.552 521.615 252.737 521.226 252.737L512.629 253.578C512.178 253.578 511.972 253.783 511.972 254.193V296.088C511.972 296.478 512.178 296.683 512.629 296.683L521.226 297.524C521.615 297.524 521.82 297.75 521.82 298.181V301.258C521.82 301.648 521.615 301.853 521.226 301.853H493.508C493.118 301.853 492.913 301.648 492.913 301.258V298.181C492.913 297.75 493.118 297.524 493.508 297.524L501.386 296.683C501.817 296.683 502.042 296.478 502.042 296.088V278.239C502.042 278.157 501.981 278.074 501.837 277.992C501.694 277.91 501.591 277.869 501.509 277.869H499.827C498.267 277.869 496.872 278.095 495.682 278.526C494.472 278.977 493.426 279.634 492.523 280.475C491.62 281.337 490.8 282.445 490.081 283.758C489.363 285.091 488.584 286.65 487.742 288.456L481.608 301.484C481.526 301.73 481.341 301.853 481.075 301.853H465.441C465.051 301.853 464.846 301.648 464.846 301.258V298.181C464.846 297.75 465.051 297.524 465.441 297.524L472.478 296.683C472.642 296.683 472.786 296.601 472.95 296.437L478.9 286.096C480.028 284.065 481.382 282.239 483.003 280.639C484.603 279.039 486.429 277.89 488.461 277.213C486.265 276.885 484.275 276.31 482.511 275.489C480.746 274.669 479.228 273.643 477.936 272.432C476.664 271.202 475.679 269.786 475.002 268.124C474.325 266.483 473.976 264.636 473.976 262.605C473.976 259.712 474.694 257.332 476.11 255.445C477.525 253.557 479.495 251.998 481.977 250.767C483.926 249.885 486.245 249.269 488.912 248.921C491.579 248.592 494.349 248.428 497.242 248.428H521.226ZM423.239 248.428C423.649 248.428 423.854 248.613 423.854 249.023V252.142C423.854 252.552 423.649 252.737 423.239 252.737L416.325 253.578C415.935 253.578 415.73 253.783 415.73 254.193V284.353L441.211 257.907C441.457 257.681 441.581 257.394 441.581 257.066V254.48C441.581 254.05 441.375 253.824 440.985 253.824L434.071 252.983C433.661 252.983 433.456 252.778 433.456 252.388V249.023C433.456 248.613 433.661 248.428 434.071 248.428H460.271C460.702 248.428 460.927 248.613 460.927 249.023V252.142C460.927 252.552 460.702 252.737 460.271 252.737L451.921 253.578C451.51 253.578 451.305 253.783 451.305 254.193V296.088C451.305 296.478 451.51 296.683 451.921 296.683L460.271 297.524C460.702 297.524 460.927 297.75 460.927 298.181V301.258C460.927 301.648 460.702 301.853 460.271 301.853H434.071C433.661 301.853 433.456 301.648 433.456 301.258V298.181C433.456 297.75 433.661 297.524 434.071 297.524L440.985 296.683C441.375 296.683 441.581 296.478 441.581 296.088V264.411L416.222 290.918C415.894 291.225 415.73 291.595 415.73 292.005V296.088C415.73 296.478 415.935 296.683 416.325 296.683L423.239 297.524C423.649 297.524 423.854 297.75 423.854 298.181V301.258C423.854 301.648 423.649 301.853 423.239 301.853H397.039C396.588 301.853 396.383 301.648 396.383 301.258V298.181C396.383 297.75 396.588 297.524 397.039 297.524L405.389 296.683C405.8 296.683 405.984 296.478 405.984 296.088V254.193C405.984 253.783 405.8 253.578 405.389 253.578L397.039 252.737C396.588 252.737 396.383 252.552 396.383 252.142V249.023C396.383 248.613 396.588 248.428 397.039 248.428H423.239ZM389.633 248.428C390.043 248.428 390.248 248.572 390.248 248.9V264.944C390.248 265.272 390.043 265.436 389.633 265.436H385.55C385.386 265.436 385.263 265.395 385.14 265.313C385.016 265.231 384.955 265.108 384.955 264.944L382.719 254.07C382.719 253.742 382.575 253.578 382.247 253.578H371.065C370.983 253.578 370.901 253.619 370.799 253.701C370.696 253.783 370.655 253.947 370.655 254.193V296.088C370.655 296.478 370.86 296.683 371.312 296.683L379.908 297.524C380.298 297.524 380.503 297.75 380.503 298.181V301.258C380.503 301.648 380.298 301.853 379.908 301.853H351.472C351.082 301.853 350.877 301.648 350.877 301.258V298.181C350.877 297.75 351.082 297.524 351.472 297.524L360.068 296.683C360.499 296.683 360.725 296.478 360.725 296.088V254.193C360.725 253.947 360.663 253.783 360.52 253.701C360.376 253.619 360.274 253.578 360.192 253.578H349.133C348.805 253.578 348.641 253.742 348.641 254.07L346.425 264.944C346.425 265.108 346.363 265.231 346.24 265.313C346.117 265.395 345.974 265.436 345.83 265.436H341.727C341.337 265.436 341.132 265.272 341.132 264.944V248.9C341.132 248.572 341.337 248.428 341.727 248.428H389.633ZM315.938 246.664C321.641 246.664 326.996 247.628 332.063 249.557C332.453 249.721 332.658 249.926 332.658 250.152V264.411C332.658 264.759 332.453 264.944 332.063 264.944H328.206C327.816 264.944 327.611 264.759 327.611 264.411L325.621 255.096C325.621 254.85 325.457 254.583 325.149 254.316C321.702 252.696 318.481 251.896 315.527 251.896C310.234 251.896 306.028 254.07 302.909 258.399C300.099 262.277 298.703 266.975 298.703 272.453C298.703 279.306 300.201 284.906 303.197 289.236C306.643 294.201 311.649 296.683 318.235 296.683C323.118 296.683 327.775 295.206 332.166 292.231C332.412 292.067 332.576 292.026 332.658 292.108C332.74 292.19 332.822 292.313 332.905 292.477L334.648 295.473C334.792 295.76 334.689 296.047 334.279 296.314C327.262 301.176 320.41 303.597 313.721 303.597C305.741 303.597 299.422 301.115 294.723 296.15C290.087 291.287 287.748 284.866 287.748 276.844C287.748 268.432 290.312 261.333 295.441 255.568C300.776 249.639 307.608 246.664 315.938 246.664ZM262.759 276.249C258.553 276.495 255.373 276.946 253.26 277.623C252.705 277.787 251.721 278.116 250.305 278.587C246.058 280.024 243.945 283.204 243.945 288.087C243.945 293.339 246.571 295.965 251.823 295.965C253.342 295.965 255.188 295.575 257.342 294.816C258.43 294.426 260.03 293.687 262.164 292.6C262.553 292.313 262.759 292.067 262.759 291.882V276.249ZM263.6 296.437C258.43 301.217 252.829 303.597 246.776 303.597C240.478 303.597 236.231 301.012 234.015 295.842C233.297 294.159 232.948 292.354 232.948 290.426C232.948 283.655 236.395 278.69 243.289 275.53C245.361 274.566 247.494 273.869 249.649 273.417C254.47 272.412 258.82 271.755 262.759 271.448V261.948C262.759 255.568 259.62 252.388 253.383 252.388C249.813 252.388 246.715 253.024 244.068 254.316C243.822 254.501 243.617 254.85 243.453 255.322L241.709 264.411C241.709 264.759 241.524 264.944 241.114 264.944H237.277C236.867 264.944 236.662 264.759 236.662 264.411V250.767C236.662 250.521 236.867 250.316 237.277 250.152C243.76 247.833 249.915 246.664 255.721 246.664C263.928 246.664 269.262 249.146 271.704 254.07C272.627 255.917 273.099 258.256 273.099 261.107V294.344C273.099 294.652 273.263 294.898 273.571 295.062L281.326 297.278C281.736 297.524 281.942 297.729 281.983 297.893V299.986C281.839 300.438 281.654 300.643 281.449 300.643L265.221 302.817C264.81 302.817 264.626 302.612 264.626 302.223L263.6 296.437ZM188.776 248.428C189.166 248.428 189.371 248.613 189.371 249.023V252.142C189.371 252.552 189.166 252.737 188.776 252.737L181.739 253.578C181.329 253.578 181.144 253.783 181.144 254.193V270.607C181.144 270.996 181.329 271.202 181.739 271.202H205.169C205.579 271.202 205.784 270.996 205.784 270.607V254.193C205.784 253.783 205.579 253.578 205.169 253.578L198.152 252.737C197.742 252.737 197.537 252.552 197.537 252.142V249.023C197.537 248.613 197.742 248.428 198.152 248.428H224.947C225.357 248.428 225.562 248.613 225.562 249.023V252.142C225.562 252.552 225.357 252.737 224.947 252.737L216.35 253.578C215.961 253.578 215.755 253.783 215.755 254.193V296.088C215.755 296.478 215.961 296.683 216.35 296.683L224.947 297.524C225.357 297.524 225.562 297.75 225.562 298.181V301.258C225.562 301.648 225.357 301.853 224.947 301.853H198.152C197.742 301.853 197.537 301.648 197.537 301.258V298.181C197.537 297.75 197.742 297.524 198.152 297.524L205.169 296.683C205.579 296.683 205.784 296.478 205.784 296.088V276.618C205.784 276.208 205.579 276.002 205.169 276.002H181.739C181.329 276.002 181.144 276.208 181.144 276.618V296.088C181.144 296.478 181.329 296.683 181.739 296.683L188.776 297.524C189.166 297.524 189.371 297.75 189.371 298.181V301.258C189.371 301.648 189.166 301.853 188.776 301.853H161.961C161.51 301.853 161.305 301.648 161.305 301.258V298.181C161.305 297.75 161.51 297.524 161.961 297.524L170.557 296.683C170.947 296.683 171.152 296.478 171.152 296.088V254.193C171.152 253.783 170.947 253.578 170.557 253.578L161.961 252.737C161.51 252.737 161.305 252.552 161.305 252.142V249.023C161.305 248.613 161.51 248.428 161.961 248.428H188.776ZM116.271 248.428C116.681 248.428 116.887 248.613 116.887 249.023V252.142C116.887 252.552 116.681 252.737 116.271 252.737L109.357 253.578C108.967 253.578 108.762 253.783 108.762 254.193V284.353L134.243 257.907C134.489 257.681 134.613 257.394 134.613 257.066V254.48C134.613 254.05 134.408 253.824 134.018 253.824L127.104 252.983C126.693 252.983 126.488 252.778 126.488 252.388V249.023C126.488 248.613 126.693 248.428 127.104 248.428H153.303C153.734 248.428 153.96 248.613 153.96 249.023V252.142C153.96 252.552 153.734 252.737 153.303 252.737L144.953 253.578C144.543 253.578 144.337 253.783 144.337 254.193V296.088C144.337 296.478 144.543 296.683 144.953 296.683L153.303 297.524C153.734 297.524 153.96 297.75 153.96 298.181V301.258C153.96 301.648 153.734 301.853 153.303 301.853H127.104C126.693 301.853 126.488 301.648 126.488 301.258V298.181C126.488 297.75 126.693 297.524 127.104 297.524L134.018 296.683C134.408 296.683 134.613 296.478 134.613 296.088V264.411L109.254 290.918C108.926 291.225 108.762 291.595 108.762 292.005V296.088C108.762 296.478 108.967 296.683 109.357 296.683L116.271 297.524C116.681 297.524 116.887 297.75 116.887 298.181V301.258C116.887 301.648 116.681 301.853 116.271 301.853H90.0714C89.62 301.853 89.4148 301.648 89.4148 301.258V298.181C89.4148 297.75 89.62 297.524 90.0714 297.524L98.4215 296.683C98.8318 296.683 99.0165 296.478 99.0165 296.088V254.193C99.0165 253.783 98.8318 253.578 98.4215 253.578L90.0714 252.737C89.62 252.737 89.4148 252.552 89.4148 252.142V249.023C89.4148 248.613 89.62 248.428 90.0714 248.428H116.271ZM57.7784 225.039C57.7784 224.629 57.5939 224.444 57.1834 224.444H38.6775C38.2672 224.444 38.0621 224.629 38.0621 225.039C37.7544 230.764 37.2003 236.693 36.4208 242.827C35.6411 248.962 34.4922 255.075 32.9535 261.19C31.4352 267.303 29.5068 273.294 27.1884 279.162C24.8701 285.03 21.9771 290.508 18.5304 295.596C18.3253 295.842 18.3457 296.006 18.5715 296.088C18.7767 296.17 18.9818 296.211 19.1254 296.211H57.1834C57.5939 296.211 57.7784 296.006 57.7784 295.596V225.039ZM68.488 295.596C68.488 296.006 68.6932 296.211 69.083 296.211H82.0085C82.1725 296.211 82.3161 296.273 82.4597 296.437C82.6035 296.601 82.665 296.765 82.665 296.929V324.626C82.665 325.037 82.4392 325.242 82.0085 325.242H77.6179C77.5358 325.242 77.4127 325.201 77.228 325.119C77.0435 325.037 76.9613 324.914 76.9613 324.749L72.9401 302.325C72.9401 302.181 72.8787 302.058 72.7555 301.976C72.6324 301.894 72.4888 301.853 72.3246 301.853H10.4879C10.3239 301.853 10.1801 301.894 10.0572 301.976C9.93399 302.058 9.8725 302.181 9.8725 302.325L5.8512 324.749C5.8512 324.914 5.7897 325.037 5.6666 325.119C5.5434 325.201 5.3998 325.242 5.1947 325.242H0.804199C0.352799 325.242 0.147705 325.037 0.147705 324.626V296.929C0.147705 296.765 0.209214 296.601 0.352814 296.437C0.496414 296.273 0.639999 296.211 0.804199 296.211H9.74939C9.99559 296.211 10.3033 296.006 10.652 295.596C14.5092 290.672 17.7098 285.276 20.2538 279.408C22.7979 273.54 24.8495 267.529 26.4087 261.374C27.968 255.219 29.1579 249.044 29.9787 242.827C30.7993 236.611 31.3327 230.681 31.579 225.039C31.579 224.629 31.3532 224.444 30.9224 224.444L18.6535 223.418C18.2226 223.418 17.997 223.213 17.997 222.803V219.623C17.997 219.233 18.2226 219.028 18.6535 219.028H76.7469L244.351 134.285C252.74 129.868 263.619 122.54 269.175 125.075C285.46 132.509 302.331 142.455 318.329 150.205C334.409 157.993 459.391 220.457 465.016 224.856L293.318 148.384C257.563 133.344 273.381 133.473 243.921 145.738C235.401 149.284 227.982 153.001 219.408 156.745C202.604 164.082 186.316 171.697 170.441 178.645C154.011 185.838 138.028 193.556 121.431 200.596C111.709 204.721 92.956 214.563 80.1961 219.511C80.2011 219.546 80.2031 219.584 80.2031 219.623V222.803C80.2031 223.213 79.9773 223.418 79.5465 223.418L69.0831 224.444C68.6933 224.444 68.4881 224.629 68.4881 225.039L68.488 295.596ZM259.721 199.336L173.766 199.415L259.917 159.174L259.721 199.336ZM269.187 199.336L355.143 199.415L268.992 159.174L269.187 199.336ZM69.4889 208.031L76.7536 204.336C73.1087 201.222 69.4255 201.813 63.8151 194.084C61.1832 190.458 63.4684 191.088 58.8675 190.554C60.3807 199.979 61.2999 202.085 68.0999 207.039L69.4889 208.031Z" fill="#69301C"/>
</svg>
