<?xml version="1.0" encoding="UTF-8" standalone="no"?>
<svg
   xmlns:dc="http://purl.org/dc/elements/1.1/"
   xmlns:cc="http://creativecommons.org/ns#"
   xmlns:rdf="http://www.w3.org/1999/02/22-rdf-syntax-ns#"
   xmlns:svg="http://www.w3.org/2000/svg"
   xmlns="http://www.w3.org/2000/svg"
   viewBox="0 0 1190.5511 841.88977"
   id="svg2"
   height="841.88977"
   width="1190.5511"
   version="1.1">
  <metadata
     id="metadata10">
    <rdf:RDF>
      <cc:Work
         rdf:about="">
        <dc:format>image/svg+xml</dc:format>
        <dc:type
           rdf:resource="http://purl.org/dc/dcmitype/StillImage" />
      </cc:Work>
    </rdf:RDF>
  </metadata>
  <defs
     id="defs8" />
  <path
     id="path4"
     style="fill:#69301c;fill-rule:evenodd"
     d="m 548.1227,72.1105 -3.6642,1.7102 c 2.1978,5.75 3.0268,5.0111 5.4416,9.7443 L 539.648,80.3579 c 1.2112,7.0603 -2.5201,-4.9629 0.5307,2.0086 l 1.9756,8.0582 c 5.3082,-0.8266 0.796,-2.2282 6.0483,0.419 4.7903,16.8909 -10.7269,0.5496 -12.1603,0.0976 -0.6309,4.1289 3.9537,13.67 6.4687,17.1348 2.9138,4.012 2.3145,-0.4038 3.3277,6.7517 -6.5056,-3.452 -10.4692,-16.9112 -18.4462,-16.7245 1.1439,5.7094 -3.7923,10.12 4.3675,12.5895 l -1.1338,2.7016 c -0.4456,1.7331 -0.6627,0.2134 -0.4089,3.6426 l 1.6379,5.1317 c 1.248,2.7513 5.1012,0.9497 7.6786,2.9252 0.2551,0.1956 0.8353,0.9129 1.0753,1.1261 0.7834,0.6958 0.2616,0.5777 1.7927,1.5224 1.4233,0.8786 2.26,0.8164 3.5803,1.3407 -2.0822,2.0592 -4.6798,-0.8405 -8.0925,-0.8799 -0.4494,7.6646 2.7234,1.8219 6.3735,9.7963 -4.2723,-0.5218 -10.1164,-2.8972 -13.242,-4.3978 -7.1036,-3.4116 -4.233,-6.7468 -10.388,-7.8679 l 3.6564,8.1713 c 1.8105,4.3978 1.9845,4.879 3.169,9.4332 0.292,0.179 0.7783,-0.0458 0.9636,0.3516 l 6.3672,2.4174 c 4.121,3.5244 2.8578,3.0141 7.0564,4.5807 3.6438,1.3597 2.9151,0.0749 4.0908,3.1183 -3.5791,5.8655 -18.4424,-0.7161 -22.8798,-3.437 3.1321,-3.852 2.0657,-7.2684 0.6729,-10.9364 -3.4914,1.888 -6.1348,6.3658 -9.6744,6.696 -1.2938,-2.8262 3.3936,-7.4083 3.4445,-12.6466 -3.4154,2.3487 -5.6296,6.6184 -10.6572,6.1207 -1.2924,-6.6095 0.1815,-7.3662 5.1076,-6.1246 0.4229,-5.3336 1.0412,-4.9577 2.4301,-8.6282 l -8.7146,2.5417 3.9891,-6.3836 c -1.695,-5.4923 -0.9318,0.3644 -2.4161,-4.3649 -0.08,-0.2565 -0.1421,-0.5358 -0.2006,-0.8074 -0.0634,-0.2921 -0.0697,-0.579 -0.1143,-0.8888 -0.537,-3.7276 0.9282,-2.6535 -1.2276,-7.1657 -4.0488,2.7653 -2.5938,5.1788 -2.3298,10.5518 -0.1409,0.0634 -0.4215,-0.1765 -0.4659,-0.0241 l -3.193,-0.0662 c -0.0915,0.007 -0.4204,-0.007 -0.5967,0.0903 1.4472,4.7445 2.0986,9.6846 3.3771,13.8857 -3.6286,-2.1875 -2.6789,-5.0974 -6.7073,-7.6849 l -0.6692,1.653 c -1.1248,3.2349 0.5002,1.5121 -1.6708,5.0455 l 4.5261,3.2247 c -1.2504,6.2414 1.3788,7.4844 0.1474,10.3169 -2.675,-2.995 -3.5701,-4.9122 -6.5982,-5.7475 l -1.1579,-0.2705 c -0.5498,-2.157 -0.2768,-2.2154 0.8468,-4.2328 -3.3658,-1.1198 -3.7605,-0.9992 -5.2473,-4.0616 -1.8015,-3.711 -2.1292,-5.5659 -6.4305,-6.6489 l -11.5611,-3.3301 c 2.9265,-1.9198 3.099,-1.2444 3.4711,-5.3744 -5.7781,-4.6062 -3.8444,0.7364 -6.8292,-8.66 -3.4305,0.9052 -0.0737,-0.1384 -2.2372,1.9108 -1.6072,1.521 0.4558,0.9535 -2.063,1.9514 -2.4466,-4.0069 -3.4496,-3.5613 -15.6721,-5.6168 -0.7212,4.8486 -0.0229,2.3679 1.2962,5.745 -8.919,4.2215 -4.2621,3.2299 -5.4047,8.4518 -2.9519,-0.7313 -1.719,-1.5921 -5.0442,-0.7808 -2.0301,8.6282 -0.0875,4.6607 1.5375,11.4494 -9.3836,-5.9228 -6.089,-2.1254 -13.2636,1.7609 -1.8206,0.9853 -2.2599,0.6476 -4.1554,1.7458 0.8811,2.7169 2.0555,3.4876 2.3335,5.1076 1.281,7.4805 -1.9095,-4.0565 -1.2455,5.9583 2.8161,2.025 7.0019,0.4393 10.7778,2.0593 2.934,1.2569 0.3352,1.1895 4.5731,2.4745 3.9397,1.1947 1.9539,-1.8118 4.5833,1.9158 l -5.8427,0.7783 c -6.244,-0.8036 -5.4873,-2.7995 -13.0199,-1.8993 1.6784,6.3404 0.2933,3.9776 4.9553,6.1017 -6.3875,2.3424 0.763,0.7096 -4.6252,5.0606 -4.4221,-0.6956 -2.1558,-4.8093 -7.6011,-1.0283 2.129,5.7374 2.9531,0.004 2.656,7.2456 -2.2194,0.8773 -7.4006,-1.2289 -6.1348,4.9566 1.2581,6.1538 0.2324,-1.2506 2.9887,4.2735 l 0.6754,3.3378 c 0.4684,2.0529 1.3635,1.7292 3.0534,1.6518 6.5067,-0.2971 3.3949,0.9269 8.1091,-3.3797 2.0071,0.4596 4.0525,1.3369 4.8409,2.1824 l 4.0919,2.9671 c -4.3991,8.4544 -7.7927,2.7576 -14.5052,5.0899 -4.4881,1.5603 -5.477,4.6124 -9.2986,4.9273 l -9.3964,2.0823 c 0.1206,2.9822 0.7198,2.7322 1.5425,5.2485 -1.8371,1.1363 -6.2782,4.4804 -8.8999,4.5465 -1.0195,-1.9552 -1.295,-4.1949 -0.9332,-7.1949 5.4746,-1.9628 1.5806,-0.0813 6.3467,-1.2544 0.3848,-3.7492 2.0327,-5.4073 2.5647,-8.9659 -4.9782,0.3122 -3.9751,1.7329 -10.1899,2.6572 l 4.9159,-8.1662 c -1.0524,-3.5611 -1.0449,-0.7198 -3.7821,-4.3459 0.8201,-4.46 1.8662,-7.304 -1.6227,-10.2672 -4.031,3.8901 -1.9487,8.133 -2.416,13.6445 -3.6261,-2.1355 0.207,-0.6958 -4.6646,-2.915 l 3.7544,17.8926 c -6.7341,-4.2025 0.007,-5.9075 -8.499,-9.0079 -1.3368,3.5067 -0.1853,1.7393 -0.6143,4.6011 -0.2527,1.6834 -0.8266,2.4135 -0.9866,3.5142 l 4.7636,2.0251 c -0.6855,8.9672 1.0855,7.605 1.0055,13.529 -3.0547,-2.7957 -3.4571,-6.3899 -7.9261,-6.6757 -0.6183,2.0999 -0.942,-2.157 -0.24,1.7217 0.579,3.1994 2.9734,2.6954 3.8367,5.0771 -4.9412,0.1562 -2.0287,-0.1727 -6.5435,-2.2067 1.2937,9.2569 3.4127,5.4213 9.7481,8.9027 3.7898,2.0833 3.9535,4.2125 4.1744,8.5037 -8.8593,-0.3274 -7.7496,-12.2276 -16.138,-9.9409 -0.3122,4.0462 1.441,-0.2425 1.8308,4.6061 0.6068,7.5377 -6.376,4.6797 11.768,15.0423 l -1.0157,4.4209 c -0.6283,-0.2819 -0.9026,-0.8228 -0.9776,-0.6489 -0.0749,0.1715 -0.4265,-0.4303 -0.5307,-0.5421 -2.2789,-2.4491 -2.2687,-3.2604 -5.477,-4.3574 -0.1066,6.2161 0.8214,5.0633 -0.0356,10.802 3.7682,2.9443 3.9219,0.6995 5.1585,4.3002 -4.0934,1.7711 -8.1763,-0.7847 -10.562,-3.0153 l -7.3624,-8.9445 c -2.7754,6.9295 -1.0932,14.8455 4.3789,19.3057 0.1803,0.1472 0.4354,0.3453 0.6131,0.4939 0.1765,0.1472 0.4165,0.3681 0.5892,0.5168 1.121,0.956 0.6577,0.7008 1.6479,1.4828 4.5173,3.5639 8.3312,-0.1294 12.8866,-2.5316 l 163.399,-85.9921 c 9.7785,-5.2447 9.6223,-7.1796 19.4479,-1.6721 15.4016,8.6334 57.9349,31.4801 72.6879,37.8955 l 0.2538,-23.5894 25.2868,-0.0419 -0.0659,37.4129 c 14.843,7.8552 31.5168,17.07 47.1545,24.5543 0.202,-0.1943 0.494,-0.7872 0.5917,-0.5967 0.0978,0.1891 0.4634,-0.4672 0.6005,-0.5892 1.8601,-1.6581 -0.2868,-0.1675 1.8486,-1.6035 3.5193,-2.3691 5.2295,0.8558 10.1925,-1.1807 0.1675,-0.0686 0.4914,-0.2958 0.7667,-0.3492 -1.1158,2.8503 -5.5862,4.728 -8.1736,6.9334 -0.1396,0.1194 -0.4202,0.3708 -0.6057,0.5802 4.2762,-1.6237 9.5564,-4.6608 14.8139,-4.4271 -0.1587,1.2303 -0.339,3.1855 0.0228,4.2734 l 0.8951,1.7599 c 0.504,1.0182 0.8557,1.1057 1.2747,2.7448 3.6311,-0.4507 6.7797,-0.4925 9.597,1.4258 1.9564,1.3304 0.1562,1.0957 3.0255,2.1533 -2.5875,-19.3642 -2.0364,-12.0258 2.2192,-16.6738 l -3.2831,-6.1476 c -0.7707,-1.5704 -1.8385,-3.8888 -2.5012,-5.392 -15.7038,-1.1109 -4.615,-0.0825 -12.1273,3.4152 -1.6035,-1.8243 1.1122,-0.099 -2.8147,-2.3094 1.3241,-2.4986 3.5967,-4.7597 6.9359,-5.9709 6.1855,-2.2446 5.0073,1.0068 8.5291,-5.0937 -0.928,-2.8299 0.621,-0.0355 -0.9573,-1.2087 l -1.9361,-0.942 c -0.4837,-4.6177 -1.8206,-3.1602 0.014,-6.4497 -2.1736,-2.3437 -2.9518,-1.1058 -4.7586,-4.8652 -4.573,-9.517 -9.4292,-5.3857 -18.3103,-9.955 3.2731,-1.9539 3.7404,-0.8595 3.6692,-5.6028 -2.124,-1.9437 0.3428,0.1193 -2.152,-1.1147 -1.4523,-0.7174 -1.5628,-0.325 -2.6255,-1.4207 l -2.6002,-6.602 c -0.1904,0.259 -0.4012,0.3796 -0.4875,0.8329 l -2.7372,3.5396 -2.8377,-4.3648 c -5.0961,1.4588 -8.2195,0.3135 -13.0782,-1.408 -0.7389,3.7847 -0.1042,3.5142 1.2557,6.5714 -7.327,1.3281 -14.8406,12.9908 -30.91,8.7833 2.369,-7.8298 9.8432,-2.133 11.5256,-10.7942 l 6.8773,0.2932 c 1.9058,-6.8165 5.5864,-12.8904 7.1975,-19.1812 -5.6967,1.8675 -3.6793,4.629 -9.9576,7.8068 -4.2202,2.1367 -8.9811,4.7292 -13.6331,3.9154 2.6306,-3.4559 6.7874,-3.8227 6.6363,-9.0878 -5.7488,-0.2565 -2.7448,0.9889 -8.7082,2.4554 l 4.9477,-3.8342 c 3.9776,-3.3442 7.5553,-2.7196 9.2136,-4.6023 2.4426,-3.6095 2.934,-6.9588 0.5953,-10.4858 4.6938,-4.276 6.0358,-4.9604 3.9499,-11.7389 -0.7263,-2.3627 -0.1956,-1.1705 -1.0234,-2.4516 -8.6588,5.2131 -8.3528,11.1308 -16.124,17.1474 -0.0103,-0.0178 -3.3176,0.0127 0.9711,-5.1102 3.2908,-3.9307 8.7299,-12.8434 7.9428,-18.563 -1.4233,0.3428 -7.3676,6.371 -11.4329,7.7433 l -1.7584,-7.3472 c 6.0611,-2.4656 1.5477,-0.7008 7.0565,-1.4283 0.1511,-2.3233 0.089,-2.6001 0.7517,-4.7458 0.9839,-3.1829 -0.1081,0.4863 0.9432,-2.3081 0.3327,-0.8825 0.5865,-0.001 0.7542,-2.2117 -4.8664,0.5662 -4.6277,2.1355 -9.8585,2.9062 0.6322,-3.2489 5.8566,-6.2554 3.9877,-9.7393 -1.1323,-2.1126 -0.2881,0.9916 -3.0356,-3 1.2456,-6.2567 0.4558,-4.8017 -0.1078,-10.4717 -2.6954,1.4485 -3.1296,0.5586 -3.8978,5.0986 -0.4366,2.5787 0.1599,4.7498 0.1765,7.5226 -1.6987,1.0029 -1.1795,-0.0255 -4.8233,-1.6595 0.8113,5.5534 3.004,8.5217 3.0027,14.2337 0,0.3682 -0.0203,1.3813 -0.0699,1.6961 -0.4609,2.9634 1.2353,-0.3733 -0.8277,2.1826 -2.6611,-5.6778 -0.8748,-6.8915 -6.9728,-9.1629 l -1.8028,8.3807 5.406,2.2142 c -1.959,10.421 0.6589,6.0117 0.6462,12.9882 -3.9433,-2.8884 -3.8304,-7.0096 -6.5917,-10.0745 -5.1357,0.9117 -3.6374,3.3049 -6.4827,2.0176 -5.2917,-2.3945 4.3954,-0.4787 -3.7732,-4.8283 2.826,-0.861 4.6403,-2.4085 4.3459,-5.6625 -1.4081,-0.2502 -4.4996,-0.5651 -6.5475,-0.2249 -4.681,0.7771 0.0711,1.3103 -5.2105,1.6518 -0.0241,-9.8725 13.8032,-2.0262 12.7952,-9.0345 -0.0255,-0.1727 -0.1511,-0.4952 -0.1867,-0.6755 -0.0368,-0.184 -0.1981,-0.4912 -0.2374,-0.6779 -0.7896,-3.7568 0.8176,-3.8876 2.0314,-7.5909 -8.9215,-3.5283 -4.1694,-0.1474 -9.2212,-6.4498 l -8.2106,2.7984 c 1.2341,-4.2318 3.0191,-4.6139 2.3628,-8.1841 -1.3737,-7.4729 -5.6015,-0.7541 -6.2529,-4.0017 -0.9051,-4.5148 -0.1993,-4.6367 -5.1178,-6.7937 1.8766,-3.6451 2.5265,-0.9179 0.8735,-5.514 L 605.179,82.699 c -4.794,1.954 2.816,1.3154 -4.0538,1.7521 -1.4284,-3.7847 2.4719,-1.6453 -2.1508,-3.7225 -2.9009,6.1894 0.5561,4.318 -5.2219,7.8932 -0.0634,0.0393 -3.0406,-0.8468 -1.78,3.2959 1.1948,3.9269 -0.1409,0.226 1.2532,1.8638 0.1574,0.1841 0.4139,0.3999 0.5802,0.5739 l -12.7253,5.2155 c -2.2967,1.5591 -3.0319,5.9736 -4.8436,7.9401 l -2.8465,1.8283 c -0.2057,0.1106 -0.6133,0.226 -0.8913,0.3949 0.796,2.7588 2.5533,6.2973 -2.548,6.9117 -1.6937,-2.0694 -1.3598,-0.1929 -0.767,-3.3275 0.6286,-3.3189 1.3154,-0.5727 1.9921,-4.6062 -11.3198,0.4925 -4.7852,7.9312 -16.5417,11.0468 0.0304,-4.0551 0.1103,-6.0637 3.3339,-8.2245 l 1.3306,-0.7618 c 4.3217,-2.3145 8.0354,1.1504 9.5474,-8.6421 -6.9816,1.1692 0.2096,1.5475 -6.6717,2.1024 1.625,-4.0781 -3.4776,3.5155 1.036,-1.2239 2.3094,-2.4263 3.4902,-1.1972 2.7297,-5.4302 -3.6439,-0.4278 -3.9943,1.9311 -6.2657,4.2659 l -2.2395,1.9616 c 1.4943,-7.5619 2.948,-2.9532 1.2797,-12.3471 l 5.1026,-3.0343 -1.6009,-5.4364 c -0.5968,-2.2816 0.1143,-1.304 -0.8646,-2.8262 -4.8563,3.8279 -3.7835,5.4263 -7.5936,8.8618 0.9764,-7.5477 1.8485,-10.5314 3.6387,-17.4177 -2.3792,0.4989 -3.4774,1.9818 -4.8271,1.3699 -1.0932,-5.3693 1.3344,-6.3938 -1.7749,-12.6212 -2.2408,1.2416 -2.1139,-0.4483 -2.8313,4.6188 -0.4328,3.0535 0.4368,3.5181 0.1588,7.1365 z m 242.2421,241.3646 c -1.6414,0 -3.2622,0.1232 -4.8214,0.4105 -1.5592,0.2872 -2.9339,0.7795 -4.1033,1.4772 -1.19,0.6975 -2.1337,1.6412 -2.8314,2.8517 -0.6975,1.2105 -1.0462,2.7083 -1.0462,4.5136 0,3.7545 1.1694,6.4628 3.5083,8.104 2.3389,1.6414 5.6831,2.462 10.012,2.462 l 3.3032,0 c 0.4308,0 0.6564,-0.1847 0.6564,-0.595 l 0,-18.629 c 0,-0.4103 -0.2256,-0.595 -0.6564,-0.595 l -4.0212,0 z m 23.8607,-5.047 c 0.3897,0 0.5948,0.1847 0.5948,0.595 l 0,3.1186 c 0,0.4103 -0.2051,0.5948 -0.5948,0.5948 l -8.5966,0.8413 c -0.4512,0 -0.6564,0.2051 -0.6564,0.6155 l 0,41.8947 c 0,0.3898 0.2052,0.5949 0.6564,0.5949 l 8.5966,0.8411 c 0.3897,0 0.5948,0.2258 0.5948,0.6566 l 0,3.0775 c 0,0.3898 -0.2051,0.595 -0.5948,0.595 l -27.7179,0 c -0.3898,0 -0.595,-0.2052 -0.595,-0.595 l 0,-3.0775 c 0,-0.4308 0.2052,-0.6566 0.595,-0.6566 l 7.8784,-0.8411 c 0.4308,0 0.6564,-0.2051 0.6564,-0.5949 l 0,-17.8494 c 0,-0.082 -0.0614,-0.1642 -0.2051,-0.2462 -0.1436,-0.082 -0.2461,-0.1231 -0.3283,-0.1231 l -1.6823,0 c -1.5593,0 -2.9544,0.2257 -4.1443,0.6565 -1.2104,0.4514 -2.2568,1.108 -3.1596,1.9491 -0.9027,0.8617 -1.7233,1.9697 -2.4414,3.2826 -0.7181,1.3336 -1.4977,2.8928 -2.3389,4.6983 l -6.1344,13.0279 c -0.0822,0.2463 -0.2667,0.3694 -0.5334,0.3694 l -15.6336,0 c -0.3898,0 -0.5949,-0.2052 -0.5949,-0.595 l 0,-3.0775 c 0,-0.4308 0.2051,-0.6566 0.5949,-0.6566 l 7.0372,-0.8411 c 0.1641,0 0.3077,-0.082 0.4719,-0.2462 l 5.9497,-10.3403 c 1.1284,-2.0311 2.4824,-3.8571 4.1032,-5.4573 1.6003,-1.6003 3.4264,-2.7492 5.4575,-3.4264 -2.1953,-0.3281 -4.1855,-0.9026 -5.9498,-1.7233 -1.7644,-0.8206 -3.2827,-1.8465 -4.5752,-3.057 -1.272,-1.2309 -2.2568,-2.6465 -2.9339,-4.3084 -0.677,-1.6414 -1.0257,-3.4878 -1.0257,-5.5189 0,-2.893 0.7181,-5.2728 2.1337,-7.1603 1.4156,-1.8875 3.3851,-3.4468 5.8676,-4.6778 1.9491,-0.8822 4.2675,-1.4976 6.9347,-1.8464 2.667,-0.3283 5.4369,-0.4925 8.3297,-0.4925 l 23.9838,0 z m -97.9869,0 c 0.4104,0 0.6157,0.1847 0.6157,0.595 l 0,3.1186 c 0,0.4103 -0.2053,0.5948 -0.6157,0.5948 l -6.914,0.8413 c -0.3898,0 -0.595,0.2051 -0.595,0.6155 l 0,30.1592 25.4815,-26.4457 c 0.2462,-0.2257 0.3694,-0.5129 0.3694,-0.8412 l 0,-2.5852 c 0,-0.4307 -0.2052,-0.6564 -0.595,-0.6564 l -6.9141,-0.8412 c -0.4103,0 -0.6154,-0.2052 -0.6154,-0.595 l 0,-3.3647 c 0,-0.4103 0.2051,-0.595 0.6154,-0.595 l 26.1996,0 c 0.4308,0 0.6564,0.1847 0.6564,0.595 l 0,3.1186 c 0,0.4103 -0.2256,0.5948 -0.6564,0.5948 l -8.3503,0.8413 c -0.4103,0 -0.6154,0.2051 -0.6154,0.6155 l 0,41.8947 c 0,0.3898 0.2051,0.5949 0.6154,0.5949 l 8.3503,0.8411 c 0.4308,0 0.6564,0.2258 0.6564,0.6566 l 0,3.0775 c 0,0.3898 -0.2256,0.595 -0.6564,0.595 l -26.1996,0 c -0.4103,0 -0.6154,-0.2052 -0.6154,-0.595 l 0,-3.0775 c 0,-0.4308 0.2051,-0.6566 0.6154,-0.6566 l 6.9141,-0.8411 c 0.3898,0 0.595,-0.2051 0.595,-0.5949 l 0,-31.6774 -25.3584,26.5072 c -0.3283,0.3077 -0.4925,0.677 -0.4925,1.0874 l 0,4.0828 c 0,0.3898 0.2052,0.5949 0.595,0.5949 l 6.914,0.8411 c 0.4104,0 0.6157,0.2258 0.6157,0.6566 l 0,3.0775 c 0,0.3898 -0.2053,0.595 -0.6157,0.595 l -26.1994,0 c -0.4514,0 -0.6566,-0.2052 -0.6566,-0.595 l 0,-3.0775 c 0,-0.4308 0.2052,-0.6566 0.6566,-0.6566 l 8.3501,-0.8411 c 0.4103,0 0.595,-0.2051 0.595,-0.5949 l 0,-41.8947 c 0,-0.4104 -0.1847,-0.6155 -0.595,-0.6155 l -8.3501,-0.8413 c -0.4514,0 -0.6566,-0.1845 -0.6566,-0.5948 l 0,-3.1186 c 0,-0.4103 0.2052,-0.595 0.6566,-0.595 l 26.1994,0 z m -33.6059,0 c 0.4103,0 0.6154,0.1436 0.6154,0.4719 l 0,16.044 c 0,0.3281 -0.2051,0.4923 -0.6154,0.4923 l -4.0828,0 c -0.1641,0 -0.2872,-0.0411 -0.4103,-0.1231 -0.1232,-0.082 -0.1847,-0.2051 -0.1847,-0.3692 l -2.2363,-10.8739 c 0,-0.3282 -0.1436,-0.4923 -0.4718,-0.4923 l -11.1816,0 c -0.082,0 -0.164,0.0411 -0.2667,0.1231 -0.1025,0.082 -0.1436,0.2461 -0.1436,0.4924 l 0,41.8947 c 0,0.3898 0.2052,0.5949 0.6566,0.5949 l 8.5964,0.8411 c 0.3898,0 0.595,0.2258 0.595,0.6566 l 0,3.0775 c 0,0.3898 -0.2052,0.595 -0.595,0.595 l -28.4359,0 c -0.3898,0 -0.595,-0.2052 -0.595,-0.595 l 0,-3.0775 c 0,-0.4308 0.2052,-0.6566 0.595,-0.6566 l 8.5964,-0.8411 c 0.4309,0 0.6566,-0.2051 0.6566,-0.5949 l 0,-41.8947 c 0,-0.2463 -0.0616,-0.4104 -0.2052,-0.4924 -0.1436,-0.082 -0.2462,-0.1231 -0.3283,-0.1231 l -11.0584,0 c -0.3282,0 -0.4923,0.1641 -0.4923,0.4923 l -2.2158,10.8739 c 0,0.1641 -0.0615,0.2872 -0.1847,0.3692 -0.1231,0.082 -0.2667,0.1231 -0.4103,0.1231 l -4.1032,0 c -0.3899,0 -0.595,-0.1642 -0.595,-0.4923 l 0,-16.044 c 0,-0.3283 0.2051,-0.4719 0.595,-0.4719 l 47.9059,0 z m -73.6952,-1.7643 c 5.7035,0 11.0582,0.9642 16.1258,2.8928 0.3899,0.164 0.595,0.3693 0.595,0.595 l 0,14.259 c 0,0.3487 -0.2051,0.5334 -0.595,0.5334 l -3.8571,0 c -0.3897,0 -0.5949,-0.1847 -0.5949,-0.5334 l -1.9901,-9.3145 c 0,-0.2463 -0.1642,-0.513 -0.4719,-0.7797 -3.4469,-1.6208 -6.6679,-2.4209 -9.6223,-2.4209 -5.2933,0 -9.499,2.1746 -12.6176,6.5037 -2.8108,3.8776 -4.2059,8.5759 -4.2059,14.0538 0,6.8525 1.4978,12.4534 4.4931,16.7825 3.4468,4.965 8.4529,7.4474 15.0387,7.4474 4.8829,0 9.5401,-1.4771 13.9307,-4.4521 0.2461,-0.1641 0.4103,-0.2052 0.4923,-0.123 0.0821,0.082 0.1641,0.2052 0.2463,0.3692 l 1.7439,2.9955 c 0.1436,0.2872 0.0409,0.5744 -0.3694,0.8411 -7.0167,4.8625 -13.8691,7.2834 -20.5576,7.2834 -7.9809,0 -14.2999,-2.4825 -18.9982,-7.4475 -4.6367,-4.8625 -6.9756,-11.284 -6.9756,-19.306 0,-8.4117 2.5645,-15.5104 7.6937,-21.2756 5.3342,-5.9293 12.1663,-8.9041 20.4961,-8.9041 z m -53.1789,29.5847 c -4.2058,0.2462 -7.3859,0.6976 -9.499,1.3747 -0.5541,0.164 -1.5388,0.4923 -2.9544,0.9642 -4.247,1.4361 -6.3601,4.6162 -6.3601,9.4992 0,5.2521 2.6261,7.8782 7.8782,7.8782 1.5183,0 3.3647,-0.3898 5.5191,-1.1489 1.0873,-0.3898 2.6876,-1.1284 4.8214,-2.2157 0.3896,-0.2872 0.5948,-0.5335 0.5948,-0.7182 l 0,-15.6335 z m 0.8412,20.1882 c -5.1701,4.7805 -10.7712,7.1603 -16.8235,7.1603 -6.2986,0 -10.5454,-2.5852 -12.7612,-7.7553 -0.7181,-1.6823 -1.0669,-3.4878 -1.0669,-5.4162 0,-6.7705 3.4467,-11.7355 10.3403,-14.8951 2.0722,-0.9642 4.2059,-1.6617 6.3601,-2.1131 4.8214,-1.0054 9.1709,-1.6619 13.11,-1.9696 l 0,-9.4992 c 0,-6.3806 -3.1389,-9.5607 -9.3759,-9.5607 -3.57,0 -6.668,0.6361 -9.3145,1.9286 -0.2463,0.1847 -0.4514,0.5334 -0.6156,1.0053 l -1.7439,9.0889 c 0,0.3487 -0.1846,0.5334 -0.5949,0.5334 l -3.8367,0 c -0.4103,0 -0.6154,-0.1847 -0.6154,-0.5334 l 0,-13.6436 c 0,-0.2462 0.2051,-0.4514 0.6154,-0.6154 6.4833,-2.3185 12.6383,-3.4878 18.4443,-3.4878 8.2067,0 13.5409,2.4824 15.9825,7.4063 0.9233,1.8466 1.3951,4.1855 1.3951,7.0372 l 0,33.2368 c 0,0.3078 0.1641,0.5539 0.4719,0.7181 l 7.7551,2.2157 c 0.4103,0.2461 0.6155,0.4513 0.6566,0.6155 l 0,2.0927 c -0.1436,0.4514 -0.3283,0.6565 -0.5334,0.6565 l -16.2286,2.1747 c -0.4103,0 -0.595,-0.2052 -0.595,-0.5948 l -1.0258,-5.7858 z m -74.8236,-48.0086 c 0.3897,0 0.5948,0.1847 0.5948,0.595 l 0,3.1186 c 0,0.4103 -0.2051,0.5948 -0.5948,0.5948 l -7.0372,0.8413 c -0.4104,0 -0.595,0.2051 -0.595,0.6155 l 0,16.4132 c 0,0.3898 0.1846,0.595 0.595,0.595 l 23.4298,0 c 0.4103,0 0.6155,-0.2052 0.6155,-0.595 l 0,-16.4132 c 0,-0.4104 -0.2052,-0.6155 -0.6155,-0.6155 l -7.0167,-0.8413 c -0.4103,0 -0.6155,-0.1845 -0.6155,-0.5948 l 0,-3.1186 c 0,-0.4103 0.2052,-0.595 0.6155,-0.595 l 26.7946,0 c 0.4103,0 0.6155,0.1847 0.6155,0.595 l 0,3.1186 c 0,0.4103 -0.2052,0.5948 -0.6155,0.5948 l -8.5964,0.8413 c -0.3898,0 -0.595,0.2051 -0.595,0.6155 l 0,41.8947 c 0,0.3898 0.2052,0.5949 0.595,0.5949 l 8.5964,0.8411 c 0.4103,0 0.6155,0.2258 0.6155,0.6566 l 0,3.0775 c 0,0.3898 -0.2052,0.595 -0.6155,0.595 l -26.7946,0 c -0.4103,0 -0.6155,-0.2052 -0.6155,-0.595 l 0,-3.0775 c 0,-0.4308 0.2052,-0.6566 0.6155,-0.6566 l 7.0167,-0.8411 c 0.4103,0 0.6155,-0.2051 0.6155,-0.5949 l 0,-19.4701 c 0,-0.4103 -0.2052,-0.6157 -0.6155,-0.6157 l -23.4298,0 c -0.4104,0 -0.595,0.2054 -0.595,0.6157 l 0,19.4701 c 0,0.3898 0.1846,0.5949 0.595,0.5949 l 7.0372,0.8411 c 0.3897,0 0.5948,0.2258 0.5948,0.6566 l 0,3.0775 c 0,0.3898 -0.2051,0.595 -0.5948,0.595 l -26.8151,0 c -0.4514,0 -0.6565,-0.2052 -0.6565,-0.595 l 0,-3.0775 c 0,-0.4308 0.2051,-0.6566 0.6565,-0.6566 l 8.5964,-0.8411 c 0.3899,0 0.595,-0.2051 0.595,-0.5949 l 0,-41.8947 c 0,-0.4104 -0.2051,-0.6155 -0.595,-0.6155 l -8.5964,-0.8413 c -0.4514,0 -0.6565,-0.1845 -0.6565,-0.5948 l 0,-3.1186 c 0,-0.4103 0.2051,-0.595 0.6565,-0.595 l 26.8151,0 z m -72.5054,0 c 0.4104,0 0.6157,0.1847 0.6157,0.595 l 0,3.1186 c 0,0.4103 -0.2053,0.5948 -0.6157,0.5948 l -6.914,0.8413 c -0.3898,0 -0.595,0.2051 -0.595,0.6155 l 0,30.1592 25.4815,-26.4457 c 0.2462,-0.2257 0.3694,-0.5129 0.3694,-0.8412 l 0,-2.5852 c 0,-0.4307 -0.2052,-0.6564 -0.595,-0.6564 l -6.9141,-0.8412 c -0.4103,0 -0.6155,-0.2052 -0.6155,-0.595 l 0,-3.3647 c 0,-0.4103 0.2052,-0.595 0.6155,-0.595 l 26.1996,0 c 0.4308,0 0.6564,0.1847 0.6564,0.595 l 0,3.1186 c 0,0.4103 -0.2256,0.5948 -0.6564,0.5948 l -8.3503,0.8413 c -0.4103,0 -0.6154,0.2051 -0.6154,0.6155 l 0,41.8947 c 0,0.3898 0.2051,0.5949 0.6154,0.5949 l 8.3503,0.8411 c 0.4308,0 0.6564,0.2258 0.6564,0.6566 l 0,3.0775 c 0,0.3898 -0.2256,0.595 -0.6564,0.595 l -26.1996,0 c -0.4103,0 -0.6155,-0.2052 -0.6155,-0.595 l 0,-3.0775 c 0,-0.4308 0.2052,-0.6566 0.6155,-0.6566 l 6.9141,-0.8411 c 0.3898,0 0.595,-0.2051 0.595,-0.5949 l 0,-31.6774 -25.3584,26.5072 c -0.3283,0.3077 -0.4925,0.677 -0.4925,1.0874 l 0,4.0828 c 0,0.3898 0.2052,0.5949 0.595,0.5949 l 6.914,0.8411 c 0.4104,0 0.6157,0.2258 0.6157,0.6566 l 0,3.0775 c 0,0.3898 -0.2053,0.595 -0.6157,0.595 l -26.1994,0 c -0.4514,0 -0.6566,-0.2052 -0.6566,-0.595 l 0,-3.0775 c 0,-0.4308 0.2052,-0.6566 0.6566,-0.6566 l 8.3501,-0.8411 c 0.4103,0 0.595,-0.2051 0.595,-0.5949 l 0,-41.8947 c 0,-0.4104 -0.1847,-0.6155 -0.595,-0.6155 l -8.3501,-0.8413 c -0.4514,0 -0.6566,-0.1845 -0.6566,-0.5948 l 0,-3.1186 c 0,-0.4103 0.2052,-0.595 0.6566,-0.595 l 26.1994,0 z m -58.4924,-23.3888 c 0,-0.4103 -0.1845,-0.595 -0.595,-0.595 l -18.5059,0 c -0.4103,0 -0.6154,0.1847 -0.6154,0.595 -0.3077,5.7242 -0.8618,11.6534 -1.6413,17.7879 -0.7797,6.1344 -1.9286,12.2482 -3.4673,18.3623 -1.5183,6.1139 -3.4467,12.1046 -5.7651,17.9724 -2.3183,5.8677 -5.2113,11.3456 -8.658,16.4337 -0.2051,0.2461 -0.1847,0.4103 0.0411,0.4924 0.2052,0.082 0.4103,0.1231 0.5539,0.1231 l 38.058,0 c 0.4105,0 0.595,-0.2052 0.595,-0.6155 l 0,-70.5563 z m 10.7096,70.5563 c 0,0.4103 0.2052,0.6155 0.595,0.6155 l 12.9255,0 c 0.164,0 0.3076,0.0615 0.4512,0.2256 0.1438,0.1642 0.2053,0.3283 0.2053,0.4925 l 0,27.6972 c 0,0.4104 -0.2258,0.6155 -0.6565,0.6155 l -4.3906,0 c -0.0821,0 -0.2052,-0.0411 -0.3899,-0.1231 -0.1845,-0.082 -0.2667,-0.2052 -0.2667,-0.3694 l -4.0212,-22.4244 c 0,-0.1436 -0.0614,-0.2668 -0.1846,-0.3488 -0.1231,-0.082 -0.2667,-0.1231 -0.4309,-0.1231 l -61.8367,0 c -0.164,0 -0.3078,0.0411 -0.4307,0.1231 -0.1232,0.082 -0.1847,0.2052 -0.1847,0.3488 l -4.0213,22.4244 c 0,0.1642 -0.0615,0.2874 -0.1846,0.3694 -0.1232,0.082 -0.2668,0.1231 -0.4719,0.1231 l -4.3905,0 c -0.4514,0 -0.6565,-0.2051 -0.6565,-0.6155 l 0,-27.6972 c 0,-0.1642 0.0615,-0.3283 0.2051,-0.4925 0.1436,-0.1641 0.2872,-0.2256 0.4514,-0.2256 l 8.9452,0 c 0.2462,0 0.5539,-0.2052 0.9026,-0.6155 3.8572,-4.924 7.0578,-10.3198 9.6018,-16.1876 2.5441,-5.8676 4.5957,-11.879 6.1549,-18.034 1.5593,-6.155 2.7492,-12.3304 3.57,-18.5468 0.8206,-6.2165 1.354,-12.1459 1.6003,-17.7879 0,-0.4103 -0.2258,-0.595 -0.6566,-0.595 l -12.2689,-1.0258 c -0.4309,0 -0.6565,-0.2051 -0.6565,-0.6154 l 0,-3.18 c 0,-0.3899 0.2256,-0.595 0.6565,-0.595 l 58.0934,0 167.6044,-84.7429 c 8.3884,-4.4169 19.2676,-11.7452 24.8235,-9.2097 16.2852,7.4335 33.1558,17.3797 49.1543,25.1295 16.0796,7.7877 141.0615,70.2525 146.6871,74.6506 L 586.3176,208.3842 c -35.7546,-15.0398 -19.9366,-14.9115 -49.3966,-2.6457 -8.5205,3.5459 -15.9388,7.2621 -24.5126,11.0062 -16.8044,7.337 -33.0923,14.9521 -48.9675,21.9008 -16.4301,7.1923 -32.4132,14.9102 -49.0095,21.9502 -9.7222,4.125 -28.4754,13.9673 -41.2353,18.915 0.005,0.0355 0.007,0.073 0.007,0.1124 l 0,3.18 c 0,0.4103 -0.2258,0.6154 -0.6566,0.6154 l -10.4634,1.0258 c -0.3898,0 -0.595,0.1847 -0.595,0.595 l 0,70.5563 z m 191.2334,-96.2593 -85.9554,0.0789 86.1507,-40.2415 -0.1953,40.1626 z m 9.466,0 85.9552,0.0789 -86.1505,-40.2415 0.1953,40.1626 z m -199.6985,8.6943 7.2647,-3.6945 c -3.6449,-3.1144 -7.3281,-2.5228 -12.9385,-10.2521 -2.6319,-3.6261 -0.3467,-2.9963 -4.9476,-3.5296 1.5132,9.4243 2.4324,11.5306 9.2324,16.4846 l 1.389,0.9916 z" />
</svg>
